<svg fill="#000000" height="197px" width="197px" version="1.1" id="Layer_1" xmlns="http://www.w3.org/2000/svg" xmlns:xlink="http://www.w3.org/1999/xlink" viewBox="-76.8 -76.8 665.60 665.60" xml:space="preserve" stroke="#000000" stroke-width="0.00512" transform="rotate(0)"><g id="SVGRepo_bgCarrier" stroke-width="0" transform="translate(0,0), scale(1)"><path transform="translate(-76.8, -76.8), scale(41.6)" fill="#7ed0ec" d="M9.166.33a2.25 2.25 0 00-2.332 0l-5.25 3.182A2.25 2.25 0 00.5 5.436v5.128a2.25 2.25 0 001.084 1.924l5.25 3.182a2.25 2.25 0 002.332 0l5.25-3.182a2.25 2.25 0 001.084-1.924V5.436a2.25 2.25 0 00-1.084-1.924L9.166.33z" strokewidth="0"></path></g><g id="SVGRepo_tracerCarrier" stroke-linecap="round" stroke-linejoin="round" stroke="#CCCCCC" stroke-width="3.072"></g><g id="SVGRepo_iconCarrier"> <g> <g> <path d="M5.224,0v512h501.551V0H5.224z M245.551,480.653H36.571V31.347h313.469v344.816h-104.49V480.653z M276.898,407.51h50.977 l-50.977,50.977V407.51z M412.735,480.653H299.063l82.324-82.324V31.347h31.347V480.653z M475.429,480.653h-31.347V31.347h31.347 V480.653z"></path> </g> </g> </g></svg>